<svg width="32" height="32" viewBox="0 0 32 32" fill="none" xmlns="http://www.w3.org/2000/svg">
<circle cx="16" cy="16" r="16" fill="#E3E3EC"/>
<path fill-rule="evenodd" clip-rule="evenodd" d="M9 20.3033C9 21.7951 10.2049 23 11.6967 23H20.3033C21.7951 23 23 21.7951 23 20.3033V11.6967C23 10.2049 21.7951 9 20.3033 9H11.6967C10.2049 9 9 10.2049 9 11.6967V20.3033ZM21.3934 12.959V10.6065H19.041V12.959H21.3934ZM16 18.4672C17.377 18.4672 18.4672 17.3771 18.4672 16C18.4672 15.4836 18.2951 14.9672 18.0082 14.5656C17.5492 13.9344 16.8033 13.5328 16 13.5328C15.1967 13.5328 14.4508 13.9344 13.9918 14.5656C13.7049 14.9672 13.5328 15.4836 13.5328 16C13.5328 17.3771 14.6803 18.4672 16 18.4672ZM21.6803 20.3033V14.5656H19.6148C19.7869 15.0246 19.9016 15.4836 19.9016 16C19.9016 18.123 18.1803 19.8443 16.0574 19.8443C13.9344 19.8443 12.2131 18.123 12.2131 16C12.2131 15.4836 12.3279 15.0246 12.5 14.5656H10.4344V20.3033C10.4344 21.0492 11.0082 21.623 11.7541 21.623H20.3607C21.0492 21.623 21.6803 21.0492 21.6803 20.3033Z" fill="#1F1F24"/>
</svg>
