<svg width="32" height="32" viewBox="0 0 32 32" fill="none" xmlns="http://www.w3.org/2000/svg">
<circle cx="16" cy="16" r="16" fill="#0085FF"/>
<path fill-rule="evenodd" clip-rule="evenodd" d="M8 12.3636C8 9.95367 9.95367 8 12.3636 8H19.6364C22.0463 8 24 9.95367 24 12.3636V19.6364C24 22.0463 22.0463 24 19.6364 24H12.3636C9.95367 24 8 22.0463 8 19.6364V12.3636ZM16 18.1818C17.205 18.1818 18.1818 17.205 18.1818 16C18.1818 14.795 17.205 13.8182 16 13.8182C14.795 13.8182 13.8182 14.795 13.8182 16C13.8182 17.205 14.795 18.1818 16 18.1818ZM16 19.6364C18.0083 19.6364 19.6364 18.0083 19.6364 16C19.6364 13.9917 18.0083 12.3636 16 12.3636C13.9917 12.3636 12.3636 13.9917 12.3636 16C12.3636 18.0083 13.9917 19.6364 16 19.6364ZM20 10.9091C20.6025 10.9091 21.0909 11.3975 21.0909 12C21.0909 12.6025 20.6025 13.0909 20 13.0909C19.3975 13.0909 18.9091 12.6025 18.9091 12C18.9091 11.3975 19.3975 10.9091 20 10.9091Z" fill="white"/>
</svg>
