<svg width="24" height="24" viewBox="0 0 24 24" fill="none" xmlns="http://www.w3.org/2000/svg">
<path fill-rule="evenodd" clip-rule="evenodd" d="M20.0016 19.5368C20.3412 19.8716 20.3412 20.4144 20.0016 20.7491C19.8318 20.9164 19.6092 21 19.3868 21C19.1642 21 18.9418 20.9164 18.7718 20.7489L11.8627 13.9365L5.05251 20.7448C4.88251 20.9147 4.65794 21 4.43338 21C4.21294 21 3.99229 20.9179 3.82294 20.7531C3.48099 20.4208 3.47707 19.8782 3.81425 19.5411L10.6332 12.7242L9.47402 11.5812L9.28946 11.7634C8.73576 12.3092 7.99989 12.6098 7.21707 12.6098C6.43403 12.6098 5.69816 12.3092 5.14468 11.7634L2.25751 8.94315C1.91642 8.60993 1.91381 8.06736 2.25186 7.73093C2.5899 7.39471 3.14055 7.39214 3.48142 7.72536L6.37142 10.5486C6.59946 10.7732 6.89881 10.8955 7.21707 10.8955C7.53533 10.8955 7.83446 10.7732 8.05968 10.5514L8.24446 10.369L4.52512 6.70171C4.18555 6.36699 4.18555 5.8242 4.52512 5.48949C4.86468 5.15499 5.41533 5.15499 5.75468 5.4897L9.47402 9.15679L9.68554 8.94808C10.1503 8.49015 10.1503 7.74443 9.68554 7.28628L6.79837 4.46584C6.45707 4.13284 6.45468 3.59005 6.79272 3.25383C7.13076 2.91762 7.6812 2.91504 8.02229 3.24826L10.9125 6.07128C12.0577 7.20078 12.0577 9.03379 10.9153 10.1603L10.7036 10.369L11.854 11.5034L19.5158 3.84398C19.6784 3.68133 19.9001 3.58962 20.1318 3.58876C20.3557 3.58469 20.586 3.67833 20.7497 3.83969C22.6777 5.74063 22.3579 8.41772 19.9151 10.8261L16.9784 13.725C16.6392 14.0601 16.0888 14.0603 15.7488 13.7256C15.409 13.3911 15.4088 12.8485 15.7481 12.5136L18.6851 9.6143C20.4512 7.873 20.4077 6.57356 20.0316 5.76977L13.0836 12.7159L20.0016 19.5368Z" fill="#0085FF"/>
</svg>
