<svg width="32" height="33" viewBox="0 0 32 33" fill="none" xmlns="http://www.w3.org/2000/svg">
<circle cx="16" cy="16.5513" r="16" fill="#0085FF"/>
<path fill-rule="evenodd" clip-rule="evenodd" d="M5.87186 16.2883C5.87186 10.6436 10.499 6.05127 16.1864 6.05127C21.8734 6.05127 26.5 10.6436 26.5 16.2883C26.5 21.9324 21.8734 26.5242 16.1865 26.5242C14.4808 26.5242 12.7955 26.1036 11.3044 25.3069L5.85529 27.0385C5.82816 27.0471 5.80034 27.0513 5.77273 27.0513C5.70066 27.0513 5.63009 27.0226 5.57807 26.9695C5.506 26.8962 5.48145 26.7884 5.51445 26.691L7.28602 21.4652C6.36045 19.9011 5.87186 18.114 5.87186 16.2883ZM20.9874 17.8163C21.0168 17.8307 21.0347 17.8395 21.0387 17.8414L21.0388 17.8415C21.2393 17.9377 21.3976 18.0137 21.4895 18.1648C21.6237 18.387 21.5705 18.9993 21.3688 19.5597C21.1128 20.2711 19.9873 20.8544 19.4751 20.8998L19.3999 20.9069C19.2815 20.9186 19.1473 20.9318 18.9795 20.9318H18.9795C18.5803 20.9318 17.8783 20.8633 16.3957 20.2711C14.8556 19.6559 13.3365 18.337 12.1179 16.5573C12.1143 16.5521 12.111 16.5472 12.1078 16.5426C12.0921 16.5196 12.0809 16.5032 12.0744 16.4944C11.7562 16.075 11.015 14.9723 11.015 13.8044C11.015 12.5068 11.6362 11.7689 12.0033 11.5375C12.3495 11.3192 13.1326 11.2161 13.2764 11.2101C13.3617 11.2065 13.3707 11.2055 13.3797 11.2052C13.3832 11.2051 13.3867 11.2051 13.3945 11.2051C13.698 11.2051 13.9164 11.3892 14.0816 11.7848C14.0981 11.8241 14.1479 11.9439 14.2146 12.1043C14.4256 12.612 14.8055 13.5262 14.833 13.5812C14.8771 13.6677 15.0136 13.9357 14.8538 14.2532L14.8195 14.3221L14.8193 14.3225C14.7539 14.4551 14.6975 14.5695 14.5708 14.7169C14.5301 14.764 14.4886 14.8139 14.4472 14.8637L14.4469 14.864C14.3596 14.9691 14.2694 15.0778 14.1861 15.1602C14.1576 15.1887 14.1024 15.2441 14.0964 15.2661C14.0964 15.2661 14.0964 15.2663 14.0965 15.2667C14.097 15.27 14.0999 15.289 14.122 15.3266C14.2929 15.6159 15.5395 17.3314 17.1818 18.0448C17.2535 18.076 17.4904 18.1735 17.5042 18.1735C17.5194 18.1735 17.5449 18.148 17.5636 18.1267C17.7067 17.965 18.1696 17.4239 18.3225 17.1966C18.4578 16.9942 18.6315 16.8912 18.8382 16.8912C18.9647 16.8912 19.0837 16.9301 19.1948 16.97C19.4405 17.0584 20.713 17.6819 20.9874 17.8163Z" fill="white"/>
</svg>
