<svg width="32" height="32" viewBox="0 0 32 32" fill="none" xmlns="http://www.w3.org/2000/svg">
<circle cx="16" cy="16" r="16" fill="#E3E3EC"/>
<path fill-rule="evenodd" clip-rule="evenodd" d="M22.2974 18.2476C22.1167 18.0779 21.9359 17.9082 21.7616 17.7353C21.2967 17.2742 21.2677 17.0148 21.6454 16.4672C22.0521 15.8908 22.4879 15.3144 22.9238 14.738C22.9501 14.7026 22.9764 14.6673 23.0026 14.6321C23.3823 14.1227 23.7504 13.6287 23.9407 13.0087C24.0859 12.6052 23.9697 12.4323 23.5339 12.3459H23.3015H20.7737C20.4832 12.3459 20.3089 12.4611 20.1926 12.7493C20.1209 12.9035 20.0541 13.0577 19.9882 13.2098C19.8938 13.4275 19.8013 13.641 19.6987 13.8445C19.292 14.6515 18.8561 15.4296 18.2169 16.0925C18.1978 16.1115 18.1786 16.1316 18.1592 16.1518C18.0318 16.2848 17.8957 16.427 17.694 16.3519C17.4034 16.2366 17.3163 15.7755 17.3163 15.6026V12.6917C17.2581 12.2594 17.171 12.0865 16.7642 12H14.1203C13.7716 12 13.5682 12.1153 13.3939 12.3459C13.2777 12.49 13.2486 12.5764 13.4811 12.6052C13.9169 12.6917 14.1784 12.9799 14.2365 13.4122C14.3237 14.1039 14.3237 14.7956 14.2655 15.4873C14.2365 15.689 14.2074 15.8908 14.1203 16.0925C13.975 16.3807 13.7716 16.4384 13.5101 16.2655C13.2777 16.0925 13.1034 15.862 12.929 15.6314C12.2898 14.738 11.7959 13.7869 11.3891 12.7782C11.2729 12.49 11.0695 12.317 10.75 12.317C10.4981 12.317 10.2463 12.3138 9.99453 12.3106C9.49093 12.3042 8.98731 12.2978 8.48371 12.317C8.01884 12.317 7.90261 12.5476 8.07695 12.9511C8.91952 14.7668 9.84927 16.5536 11.0405 18.1676C11.6506 19.0034 12.377 19.7239 13.2777 20.2427C14.3237 20.8479 15.4277 21.0208 16.6189 20.9632C17.171 20.9344 17.3453 20.7903 17.3744 20.2427C17.3744 19.868 17.4325 19.5222 17.6068 19.1763C17.8102 18.8593 18.0717 18.8016 18.3913 19.0034C18.5365 19.1187 18.6818 19.234 18.798 19.3781C18.9087 19.4978 19.0159 19.6176 19.1221 19.7362C19.3224 19.96 19.5188 20.1795 19.7278 20.3868C20.1345 20.7903 20.5994 21.0497 21.2095 20.992H23.5339C23.9116 20.9632 24.0859 20.502 23.8826 20.0986C23.7373 19.8104 23.5339 19.551 23.3305 19.2916C23.0206 18.9265 22.659 18.5871 22.2974 18.2476Z" fill="#1F1F24"/>
</svg>
