<svg width="33" height="33" viewBox="0 0 33 33" fill="none" xmlns="http://www.w3.org/2000/svg">
<circle cx="16.5" cy="16.5513" r="16" fill="#0085FF"/>
<path fill-rule="evenodd" clip-rule="evenodd" d="M25.9201 11.2561L25.9135 11.23C25.4361 9.30718 23.291 7.24054 21.3224 6.8089L21.3028 6.80236C18.1113 6.19414 14.8805 6.19414 11.6955 6.80236L11.6759 6.8089C9.70736 7.24054 7.5557 9.30718 7.08482 11.23L7.07828 11.2561C6.48968 13.9441 6.48968 16.6712 7.07828 19.3592L7.08482 19.3854C7.54262 21.2296 9.53078 23.1982 11.4274 23.741V25.8927C11.4274 26.6709 12.3757 27.0503 12.912 26.4878L15.0898 24.225C15.5607 24.2511 16.0316 24.2642 16.509 24.2642C18.1113 24.2642 19.7201 24.1138 21.3159 23.8064L21.3355 23.7999C23.3041 23.3682 25.4557 21.3016 25.9266 19.3788L25.9331 19.3527C26.5087 16.6712 26.5087 13.9441 25.9201 11.2561ZM18.5252 18.6671L18.5252 18.6671L18.4217 18.5928L18.3443 18.5382L18.3443 18.5381C18.0813 18.3527 17.8133 18.1637 17.5454 17.9911C17.2445 17.8014 16.8914 17.8014 16.6102 18.0303C16.5127 18.1119 16.4325 18.2186 16.3525 18.3251L16.3525 18.3251L16.3525 18.3251L16.3525 18.3251C16.2016 18.5261 16.0511 18.7263 15.7861 18.7563C15.5594 18.7808 15.3615 18.6962 15.1599 18.6102L15.119 18.5928C13.8045 18.0434 13.0066 17.0297 12.5292 15.7217C12.4703 15.5516 12.4703 15.3685 12.5684 15.2116C12.6207 15.1265 12.6927 15.0611 12.7712 15.0023C12.8562 14.9303 12.9412 14.8584 13.0393 14.793C13.4252 14.5314 13.484 14.0605 13.2682 13.6747C12.9216 13.0468 12.4965 12.4844 12.0321 11.9416C11.8163 11.693 11.5286 11.608 11.2343 11.7519C10.8549 11.935 10.5083 12.177 10.2402 12.4975C9.95242 12.8375 9.67774 13.3084 9.86086 13.7662L9.89825 13.8579C10.0886 14.3251 10.2808 14.7966 10.5018 15.2508C11.0054 16.271 11.594 17.2324 12.3526 18.0826C13.6868 19.5803 15.361 20.5548 17.1922 21.3134C17.2981 21.3565 17.4087 21.3879 17.5226 21.4202C17.5986 21.4418 17.6761 21.4638 17.7547 21.49C17.8076 21.4737 17.8625 21.4599 17.9175 21.4461L17.9175 21.4461L17.9175 21.4461L17.9175 21.4461L17.9175 21.4461C18.0391 21.4156 18.1612 21.385 18.2648 21.3265C18.8076 21.0322 19.1869 20.5744 19.442 20.025C19.5859 19.7307 19.5008 19.4364 19.2458 19.2206C19.0163 19.0198 18.7717 18.8441 18.5252 18.6671L18.5252 18.6671ZM16.2631 9.24954C17.124 9.28459 18.4526 9.61274 19.5801 10.4792C20.6885 11.331 21.6268 12.7193 21.7257 14.9451L22.7247 14.9007C22.6124 12.373 21.5261 10.7134 20.1895 9.68632C18.8721 8.67397 17.3354 8.29237 16.3038 8.25037L16.2631 9.24954ZM18.3172 11.9828C17.4475 11.3144 16.421 11.0611 15.7597 11.0342L15.8004 10.035C16.6325 10.0689 17.867 10.3757 18.9266 11.1899C20.0053 12.0189 20.8781 13.357 20.9682 15.3834L19.9692 15.4278C19.8925 13.7033 19.1677 12.6364 18.3172 11.9828ZM15.6098 13.0806C15.9874 13.096 16.5844 13.2429 17.0877 13.6296C17.5718 14.0016 17.9931 14.6117 18.0381 15.6237L19.0371 15.5793C18.9787 14.2654 18.4093 13.3841 17.697 12.8367C17.004 12.3041 16.1989 12.1037 15.6505 12.0814L15.6098 13.0806Z" fill="white"/>
</svg>
