<svg width="32" height="33" viewBox="0 0 32 33" fill="none" xmlns="http://www.w3.org/2000/svg">
<circle cx="16" cy="16.5513" r="16" fill="#E3E3EC"/>
<path d="M16.1864 6.05127C10.499 6.05127 5.87186 10.6436 5.87186 16.2883C5.87186 18.114 6.36045 19.9011 7.28602 21.4652L5.51445 26.691C5.48145 26.7884 5.506 26.8962 5.57807 26.9695C5.63009 27.0226 5.70066 27.0513 5.77273 27.0513C5.80034 27.0513 5.82816 27.0471 5.85529 27.0385L11.3044 25.3069C12.7955 26.1036 14.4808 26.5242 16.1865 26.5242C21.8734 26.5242 26.5 21.9324 26.5 16.2883C26.5 10.6436 21.8734 6.05127 16.1864 6.05127Z" fill="black"/>
<path d="M21.0387 17.8414C20.9978 17.8218 19.4668 17.0679 19.1948 16.97C19.0837 16.9301 18.9647 16.8912 18.8382 16.8912C18.6315 16.8912 18.4578 16.9942 18.3225 17.1966C18.1696 17.4239 17.7067 17.965 17.5636 18.1267C17.5449 18.148 17.5194 18.1735 17.5042 18.1735C17.4904 18.1735 17.2535 18.076 17.1818 18.0448C15.5395 17.3314 14.2929 15.6159 14.122 15.3266C14.0976 15.285 14.0966 15.2661 14.0964 15.2661C14.1024 15.2441 14.1576 15.1887 14.1861 15.1602C14.2695 15.0777 14.3598 14.9689 14.4472 14.8637C14.4886 14.8139 14.5301 14.764 14.5708 14.7169C14.6976 14.5694 14.754 14.4548 14.8195 14.3221L14.8538 14.2532C15.0136 13.9357 14.8771 13.6677 14.833 13.5812C14.7968 13.5088 14.1504 11.9487 14.0816 11.7848C13.9164 11.3892 13.698 11.2051 13.3945 11.2051C13.3663 11.2051 13.3945 11.2051 13.2764 11.2101C13.1326 11.2161 12.3495 11.3192 12.0033 11.5375C11.6362 11.7689 11.015 12.5068 11.015 13.8044C11.015 14.9723 11.7562 16.075 12.0744 16.4944C12.0823 16.505 12.0968 16.5265 12.1179 16.5573C13.3365 18.337 14.8556 19.6559 16.3957 20.2711C17.8783 20.8633 18.5803 20.9318 18.9795 20.9318C18.9795 20.9318 18.9795 20.9318 18.9795 20.9318C19.1473 20.9318 19.2815 20.9186 19.3999 20.9069L19.4751 20.8998C19.9873 20.8544 21.1128 20.2711 21.3688 19.5597C21.5705 18.9993 21.6237 18.387 21.4895 18.1648C21.3976 18.0137 21.2392 17.9377 21.0387 17.8414Z" fill="#E3E3EC"/>
</svg>
